<?xml version="1.0" encoding="utf-8"?>
<!-- Generator: Adobe Illustrator 23.0.3, SVG Export Plug-In . SVG Version: 6.00 Build 0)  -->
<svg version="1.1" id="Capa_1" xmlns="http://www.w3.org/2000/svg" xmlns:xlink="http://www.w3.org/1999/xlink" x="0px" y="0px"
	 viewBox="0 0 340.4 358.2" style="enable-background:new 0 0 340.4 358.2;" xml:space="preserve">
<style type="text/css">
	.st0{fill:#1A1A1A;}
	.st1{fill:#FFFFFF;stroke:#1D1D1B;stroke-width:10;stroke-miterlimit:10;}
	.st2{fill:#FFFFFF;stroke:#1D1D1B;stroke-width:0.75;stroke-miterlimit:10;}
	.st3{fill:#D64824;}
	.st4{fill:none;stroke:#E6E6E6;stroke-width:8;stroke-miterlimit:10;}
	.st5{fill:none;stroke:#973189;stroke-width:40;stroke-miterlimit:10;}
	.st6{fill:none;stroke:#424242;stroke-width:40;stroke-miterlimit:10;}
	.st7{fill:none;stroke:#000000;stroke-width:40;stroke-miterlimit:10;}
	.st8{fill:#F6F6F6;stroke:#B11AA2;stroke-width:8;stroke-miterlimit:10;}
	.st9{fill:#1D1D1B;}
	.st10{fill:#B11AA2;}
	.st11{fill:#8C1F7F;}
	.st12{fill:none;stroke:#B11AA2;stroke-width:42;stroke-miterlimit:10;}
</style>
<title>MainLateral</title>
<rect x="70.2" y="9.8" class="st0" width="200" height="300"/>
<polygon class="st0" points="70.2,308.2 120.2,358.2 220.2,358.2 270.2,308.2 "/>
<path class="st1" d="M150.7,412.1"/>
<path class="st2" d="M70.2,28.7"/>
<polygon class="st3" points="136.4,45 170.3,0 203.9,45 "/>
<line class="st4" x1="270.2" y1="149.9" x2="340.4" y2="149.9"/>
<line class="st4" x1="285.7" y1="185.1" x2="285.7" y2="114.9"/>
<line class="st4" x1="305" y1="174.9" x2="305" y2="124.9"/>
<line class="st4" x1="324.9" y1="164.9" x2="324.9" y2="134.9"/>
<path class="st5" d="M280.2,352.9"/>
<line class="st6" x1="91.8" y1="204" x2="170.2" y2="155.6"/>
<polyline class="st7" points="74.5,6.7 91.7,87.9 170.2,155.6 91.8,204 67.2,320.1 "/>
<polyline class="st7" points="265.8,6.7 248.6,87.9 170.2,155.6 248.6,204 273.2,320.1 "/>
<line class="st4" x1="70.2" y1="149.9" x2="0" y2="149.9"/>
<line class="st4" x1="54.7" y1="185.1" x2="54.7" y2="114.9"/>
<line class="st4" x1="35.4" y1="174.9" x2="35.4" y2="124.9"/>
<line class="st4" x1="15.5" y1="164.9" x2="15.5" y2="134.9"/>
<g>
	<polygon class="st8" points="119.5,297.5 160.5,342.5 160.5,297.5 	"/>
	<rect x="143" y="302.9" class="st9" width="9.9" height="9.9"/>
</g>
<g>
	<polygon class="st8" points="220.5,297.6 179.5,342.6 179.5,297.6 	"/>
	<rect x="187" y="303" class="st9" width="9.9" height="9.9"/>
</g>
<path class="st5" d="M155.9,364.2"/>
<g>
	<polygon class="st10" points="54.8,7.3 15.8,-35.5 111.7,-55.9 95.4,-1.3 	"/>
	<polygon class="st11" points="49.1,-42.6 70.3,-14.8 78.4,-48.8 	"/>
	<g>
		<polygon class="st10" points="47.2,314.6 8.2,357.4 104.1,377.8 87.8,323.2 		"/>
		<polygon class="st11" points="41.5,364.5 62.7,336.7 70.8,370.7 		"/>
	</g>
	<polyline class="st12" points="67.2,320.1 91.6,202.8 170,154.4 	"/>
	<polyline class="st12" points="73.7,2.7 91.6,86.7 170,154.4 91.6,202.8 	"/>
</g>
<g>
	<polygon class="st10" points="285.4,9.5 324.4,-33.3 228.5,-53.7 244.8,0.9 	"/>
	<polygon class="st11" points="291.1,-40.4 269.9,-12.6 261.8,-46.6 	"/>
	<polyline class="st12" points="273.2,320.1 248.6,205.1 170.2,156.7 	"/>
	<polyline class="st12" points="266.5,5 248.6,89 170.2,156.7 248.6,205.1 	"/>
</g>
<g>
	<polygon class="st10" points="292.6,314.6 331.6,357.4 235.7,377.8 252,323.2 	"/>
	<polygon class="st11" points="298.3,364.5 277.1,336.7 269,370.7 	"/>
</g>
</svg>
