<?xml version="1.0" encoding="utf-8"?>
<!-- Generator: Adobe Illustrator 23.0.3, SVG Export Plug-In . SVG Version: 6.00 Build 0)  -->
<svg version="1.1" id="Capa_1" xmlns="http://www.w3.org/2000/svg" xmlns:xlink="http://www.w3.org/1999/xlink" x="0px" y="0px"
	 viewBox="0 0 450 800" style="enable-background:new 0 0 450 800;" xml:space="preserve">
<style type="text/css">
	.st0{fill:#808080;}
	.st1{fill:#999999;}
	.st2{fill:none;stroke:#4D4D4D;stroke-width:16;stroke-miterlimit:10;}
	.st3{fill:#FFFFFF;stroke:#000000;stroke-miterlimit:10;}
	.st4{fill:none;stroke:#5C5C5C;stroke-width:16;stroke-miterlimit:10;}
	.st5{fill:#42464D;}
	.st6{fill:none;stroke:#B3220B;stroke-width:9;stroke-miterlimit:10;}
	.st7{fill:#29ABE2;}
	.st8{fill:#008CBF;}
	.st9{fill:none;stroke:#CFDCF2;stroke-width:5;stroke-miterlimit:10;}
	.st10{fill:none;stroke:#00658A;stroke-width:10;stroke-miterlimit:10;}
	.st11{fill:none;stroke:#00658A;stroke-width:20;stroke-miterlimit:10;}
	.st12{fill:none;stroke:#00658A;stroke-width:5;stroke-miterlimit:10;}
	.st13{fill:none;stroke:#CFDCF2;stroke-width:3;stroke-miterlimit:10;}
	.st14{fill:none;stroke:#00658A;stroke-width:12;stroke-miterlimit:10;}
	.st15{fill:none;stroke:#2D3036;stroke-width:4;stroke-miterlimit:10;}
	.st16{fill:#00658A;}
	.st17{fill:#606060;}
	.st18{fill:#C9DDE2;}
	.st19{fill:#543319;}
	.st20{fill:#B8CACF;}
	.st21{fill:none;stroke:#CFDCF2;stroke-width:2;stroke-miterlimit:10;}
	.st22{fill:#B3220B;}
	.st23{fill:none;stroke:#228FBD;stroke-width:3;stroke-miterlimit:10;}
	.st24{fill:#29ABE2;stroke:#228FBD;stroke-width:3;stroke-miterlimit:10;}
</style>
<title>MenuBackground - copia</title>
<path class="st0" d="M112,595"/>
<rect class="st1" width="450" height="800"/>
<path class="st2" d="M132.9,380.9"/>
<path class="st3" d="M144.3,185.5"/>
<path class="st4" d="M181.7,380.9"/>
<path class="st4" d="M258.2,406"/>
<path class="st4" d="M57.3,405.1"/>
<rect x="23.8" y="592.8" class="st5" width="25" height="25"/>
<rect x="23.8" y="758.3" class="st5" width="25" height="25"/>
<line class="st6" x1="36.3" y1="617.8" x2="36.3" y2="758.3"/>
<path class="st7" d="M369.4,111.8"/>
<polygon class="st5" points="115,554 0,554 0,0 450,0 450,743.9 335,743.9 335,171 115,171 "/>
<g>
	<rect x="126" y="15.6" class="st8" width="198" height="139"/>
	<polyline class="st9" points="309.5,78.4 276.7,78.4 253.7,95.9 	"/>
	<g>
		<g>
			<polyline class="st10" points="255.4,132.9 255.4,115.4 245.4,97.2 227.9,82.9 217.4,82.9 198.9,68.7 188.9,50.4 188.9,32.9 			
				"/>
			<polyline class="st10" points="188.9,132.9 188.9,115.4 198.9,97.2 216.4,82.9 226.9,82.9 245.4,68.7 255.4,50.4 255.4,32.9 			
				"/>
			<path class="st11" d="M190.2,43.2"/>
			<path class="st11" d="M253.7,43.2"/>
			<path class="st10" d="M193.2,58.7"/>
			<path class="st11" d="M250.2,58.7"/>
			<path class="st11" d="M245.7,97.6"/>
		</g>
		<line class="st12" x1="253.2" y1="125.7" x2="189.7" y2="125.7"/>
		<line class="st12" x1="252.7" y1="110.7" x2="192.7" y2="110.7"/>
		<line class="st12" x1="243.7" y1="96.2" x2="201.2" y2="96.2"/>
		<line class="st12" x1="253.2" y1="40.2" x2="189.7" y2="40.2"/>
		<line class="st12" x1="252.7" y1="55.2" x2="192.7" y2="55.2"/>
		<line class="st12" x1="243.7" y1="69.7" x2="201.2" y2="69.7"/>
	</g>
	<line class="st13" x1="309.5" y1="56.4" x2="279.4" y2="56.4"/>
	<line class="st13" x1="309.5" y1="63.3" x2="279.4" y2="63.3"/>
	<line class="st13" x1="303.6" y1="69.7" x2="279.4" y2="69.7"/>
	<rect x="238.7" y="88.6" class="st9" width="15" height="15"/>
</g>
<polyline class="st9" points="149.2,72 182,72 205,54.5 "/>
<rect x="205" y="47.2" class="st9" width="15" height="15"/>
<line class="st13" x1="179.3" y1="49.8" x2="149.2" y2="49.8"/>
<line class="st13" x1="179.3" y1="56.6" x2="149.2" y2="56.6"/>
<line class="st13" x1="173.4" y1="63" x2="149.2" y2="63"/>
<line class="st12" x1="135.1" y1="143.1" x2="173.4" y2="143.1"/>
<line class="st14" x1="145.5" y1="143.1" x2="145.5" y2="110.7"/>
<line class="st14" x1="162.8" y1="142.6" x2="162.8" y2="131.2"/>
<line class="st15" x1="37" y1="47" x2="87" y2="47"/>
<line class="st15" x1="37" y1="57" x2="87" y2="57"/>
<line class="st15" x1="37" y1="67" x2="87" y2="67"/>
<line class="st15" x1="37" y1="77" x2="87" y2="77"/>
<line class="st15" x1="37" y1="87" x2="87" y2="87"/>
<line class="st15" x1="37" y1="97" x2="87" y2="97"/>
<line class="st15" x1="37" y1="107" x2="87" y2="107"/>
<line class="st15" x1="37" y1="117" x2="87" y2="117"/>
<line class="st15" x1="363" y1="47" x2="413" y2="47"/>
<line class="st15" x1="363" y1="57" x2="413" y2="57"/>
<line class="st15" x1="363" y1="67" x2="413" y2="67"/>
<line class="st15" x1="363" y1="77" x2="413" y2="77"/>
<line class="st15" x1="363" y1="87" x2="413" y2="87"/>
<line class="st15" x1="363" y1="97" x2="413" y2="97"/>
<line class="st15" x1="363" y1="107" x2="413" y2="107"/>
<line class="st15" x1="363" y1="117" x2="413" y2="117"/>
<g>
	<rect x="24.5" y="400" class="st8" width="76.5" height="112.2"/>
	<line class="st12" x1="92.8" y1="446.4" x2="92.8" y2="408.1"/>
	<line class="st14" x1="92.8" y1="436.1" x2="60.3" y2="436.1"/>
	<line class="st14" x1="92.3" y1="418.7" x2="80.8" y2="418.7"/>
	<line class="st13" x1="34.7" y1="456.1" x2="34.7" y2="503.8"/>
	<line class="st13" x1="42.7" y1="456.1" x2="42.7" y2="503.8"/>
	<line class="st13" x1="51.2" y1="456.1" x2="51.2" y2="503.8"/>
	<line class="st13" x1="60.3" y1="456.1" x2="59.7" y2="503.8"/>
	<rect x="76.6" y="456.1" class="st12" width="12.8" height="47.7"/>
	<rect x="76.6" y="474.6" class="st16" width="12.8" height="29.2"/>
</g>
<g>
	<rect x="26.8" y="202.4" class="st8" width="76.5" height="112.2"/>
	<g>
		<polyline class="st12" points="34.3,207 34.3,244.8 64.9,274 64.9,311.8 		"/>
		<line class="st12" x1="34.3" y1="217" x2="49.6" y2="217"/>
		<line class="st12" x1="34.3" y1="227.1" x2="49.6" y2="227.1"/>
		<line class="st12" x1="51.9" y1="261.3" x2="62.7" y2="250.5"/>
		<line class="st12" x1="44.3" y1="254.1" x2="55.1" y2="243.3"/>
		<line class="st12" x1="59.7" y1="268.8" x2="70.6" y2="258"/>
		<line class="st12" x1="34.3" y1="237.1" x2="49.6" y2="237.1"/>
		<line class="st12" x1="65.2" y1="281.1" x2="80.5" y2="281.1"/>
		<line class="st12" x1="65.2" y1="291.1" x2="80.5" y2="291.1"/>
		<line class="st12" x1="65.2" y1="301.2" x2="80.5" y2="301.2"/>
	</g>
	<line class="st13" x1="83" y1="207" x2="83" y2="254.7"/>
	<line class="st13" x1="90.9" y1="207" x2="90.9" y2="254.7"/>
</g>
<rect x="129.7" y="233.1" class="st17" width="38.9" height="60.6"/>
<g>
	
		<rect x="64.2" y="357.8" transform="matrix(0.9659 -0.2588 0.2588 0.9659 -92.7409 32.0079)" class="st18" width="22" height="20.9"/>
	
		<rect x="69.6" y="362.7" transform="matrix(0.9659 -0.2588 0.2588 0.9659 -92.7131 32.0178)" class="st19" width="11.3" height="10.9"/>
	
		<rect x="85.1" y="360.1" transform="matrix(0.9659 -0.2588 0.2588 0.9659 -91.2936 35.5038)" class="st20" width="8.2" height="8.8"/>
</g>
<rect x="349" y="400" class="st8" width="76.5" height="112.2"/>
<g>
	<polyline class="st12" points="418,404.6 418,442.4 387.4,471.6 387.4,509.4 	"/>
	<line class="st12" x1="418" y1="414.6" x2="402.7" y2="414.6"/>
	<line class="st12" x1="418" y1="424.7" x2="402.7" y2="424.7"/>
	<line class="st12" x1="400.4" y1="458.9" x2="395" y2="453.5"/>
	<line class="st12" x1="408" y1="451.7" x2="397.2" y2="440.8"/>
	<line class="st12" x1="392.5" y1="466.4" x2="381.7" y2="455.6"/>
	<line class="st12" x1="418" y1="434.7" x2="402.7" y2="434.7"/>
	<line class="st12" x1="387.1" y1="478.7" x2="371.8" y2="478.7"/>
	<line class="st12" x1="387.1" y1="488.7" x2="371.8" y2="488.7"/>
	<line class="st12" x1="387.1" y1="498.8" x2="371.8" y2="498.8"/>
</g>
<line class="st13" x1="355.6" y1="423.2" x2="355.6" y2="451.1"/>
<line class="st13" x1="363.5" y1="403.4" x2="363.5" y2="451.1"/>
<line class="st13" x1="372.1" y1="403.4" x2="372.1" y2="451.1"/>
<path class="st13" d="M381.2,506.6"/>
<path class="st13" d="M381.8,458.9"/>
<g>
	<polygon class="st21" points="394.9,427 379.9,418.1 379.9,436.4 	"/>
	<line class="st21" x1="390" y1="427" x2="385.2" y2="427"/>
	<line class="st21" x1="383.8" y1="427" x2="381.9" y2="427"/>
</g>
<rect x="255.1" y="432.2" transform="matrix(0.5 -0.866 0.866 0.5 -248.7901 472.4408)" class="st17" width="59.4" height="38.9"/>
<rect x="129.7" y="425.3" class="st17" width="38.9" height="60.6"/>
<g>
	<rect x="349" y="202.4" class="st8" width="76.5" height="112.2"/>
	<line class="st13" x1="369.3" y1="207" x2="369.3" y2="254.7"/>
	<line class="st13" x1="361.4" y1="207" x2="361.4" y2="254.7"/>
	<g>
		<g>
			<line class="st12" x1="406.5" y1="207" x2="406.5" y2="305.1"/>
			<line class="st12" x1="406.5" y1="217" x2="391.2" y2="217"/>
			<line class="st12" x1="406.5" y1="227.1" x2="391.2" y2="227.1"/>
			<line class="st12" x1="406.5" y1="237.1" x2="391.2" y2="237.1"/>
			<line class="st12" x1="406.5" y1="277" x2="391.2" y2="277"/>
			<line class="st12" x1="406.5" y1="287" x2="391.2" y2="287"/>
			<line class="st12" x1="406.5" y1="297.1" x2="391.2" y2="297.1"/>
		</g>
		<line class="st12" x1="406.5" y1="247.2" x2="391.2" y2="247.2"/>
		<line class="st12" x1="406.5" y1="257.3" x2="391.2" y2="257.3"/>
		<line class="st12" x1="406.5" y1="267.3" x2="391.2" y2="267.3"/>
	</g>
</g>
<rect x="281.4" y="243.3" class="st17" width="38.9" height="60.6"/>
<polygon class="st22" points="368.7,186.3 394.4,192.5 393.7,166.3 "/>
<polygon class="st7" points="378.1,184.2 389.7,186.5 389.8,174.8 "/>
<rect x="372.6" y="332.4" transform="matrix(0.9999 -1.330392e-02 1.330392e-02 0.9999 -4.5209 5.1868)" class="st7" width="30" height="20"/>
<line class="st23" x1="396.3" y1="335.5" x2="396.6" y2="348.1"/>
<line class="st23" x1="387.5" y1="335.1" x2="387.7" y2="350.3"/>
<polygon class="st24" points="381.6,338.7 376.8,337.8 377,345.7 380.7,348.3 "/>
<g>
	<rect x="349.4" y="597.6" class="st8" width="76.5" height="112.2"/>
	<line class="st13" x1="369.6" y1="602.2" x2="369.6" y2="649.9"/>
	<line class="st13" x1="361.8" y1="602.2" x2="361.8" y2="649.9"/>
	<g>
		<g>
			<line class="st12" x1="406.9" y1="602.2" x2="406.9" y2="700.3"/>
			<line class="st12" x1="406.9" y1="612.2" x2="391.6" y2="612.2"/>
			<line class="st12" x1="406.9" y1="622.3" x2="391.6" y2="622.3"/>
			<line class="st12" x1="406.9" y1="632.3" x2="391.6" y2="632.3"/>
			<line class="st12" x1="406.9" y1="672.2" x2="391.6" y2="672.2"/>
			<line class="st12" x1="406.9" y1="682.2" x2="391.6" y2="682.2"/>
			<line class="st12" x1="406.9" y1="692.3" x2="391.6" y2="692.3"/>
		</g>
		<line class="st12" x1="406.9" y1="642.4" x2="391.6" y2="642.4"/>
		<line class="st12" x1="406.9" y1="652.5" x2="391.6" y2="652.5"/>
		<line class="st12" x1="406.9" y1="662.5" x2="391.6" y2="662.5"/>
	</g>
</g>
<rect x="280.7" y="627.5" class="st17" width="38.9" height="60.6"/>
</svg>
