<?xml version="1.0" encoding="utf-8"?>
<!-- Generator: Adobe Illustrator 23.0.3, SVG Export Plug-In . SVG Version: 6.00 Build 0)  -->
<svg version="1.1" id="Capa_1" xmlns="http://www.w3.org/2000/svg" xmlns:xlink="http://www.w3.org/1999/xlink" x="0px" y="0px"
	 viewBox="0 0 450 800" style="enable-background:new 0 0 450 800;" xml:space="preserve">
<style type="text/css">
	.st0{fill:#808080;}
	.st1{fill:#999999;}
	.st2{fill:none;stroke:#4D4D4D;stroke-width:16;stroke-miterlimit:10;}
	.st3{fill:#FFFFFF;stroke:#000000;stroke-miterlimit:10;}
	.st4{fill:none;stroke:#5C5C5C;stroke-width:16;stroke-miterlimit:10;}
	.st5{fill:#42464D;}
	.st6{fill:#73848C;}
	.st7{fill:#7D7D7D;}
	.st8{fill:#616161;}
	.st9{fill:#787878;}
	.st10{fill:#B3220B;}
	.st11{fill:none;stroke:#B3220B;stroke-width:9;stroke-miterlimit:10;}
	.st12{fill:#008CBF;}
	.st13{fill:none;stroke:#CFDCF2;stroke-width:5;stroke-miterlimit:10;}
	.st14{fill:#29ABE2;}
	.st15{fill:none;stroke:#00658A;stroke-width:5;stroke-miterlimit:10;}
	.st16{fill:#C9DDE2;}
	.st17{fill:#543319;}
	.st18{fill:#B8CACF;}
	.st19{fill:#606060;}
	.st20{fill:none;stroke:#228FBD;stroke-width:3;stroke-miterlimit:10;}
	.st21{fill:#29ABE2;stroke:#228FBD;stroke-width:3;stroke-miterlimit:10;}
	.st22{fill:#4F545C;}
	.st23{fill:#242424;}
	.st24{fill:#4D4D4D;}
	.st25{fill:#228DB5;}
</style>
<title>MenuBackground - copia</title>
<path class="st0" d="M338,595"/>
<rect class="st1" width="450" height="800"/>
<path class="st2" d="M317.1,380.9"/>
<path class="st3" d="M305.7,185.5"/>
<path class="st4" d="M268.3,380.9"/>
<path class="st4" d="M191.8,406"/>
<path class="st4" d="M392.7,405.1"/>
<rect x="24.9" y="324" class="st5" width="98" height="279.3"/>
<polygon class="st6" points="107.7,467.3 85.3,453.9 84,447.2 77.2,443.1 68.6,445 80.4,452.1 76.6,458.6 64.7,451.5 66.8,459.8 
	73.9,464 80.4,462.1 102.8,475.5 "/>
<polygon class="st6" points="104,332.8 112.8,341.5 111.4,342.9 108.1,339.8 95.3,353 92.8,350.7 105.6,337.5 102.5,334.4 "/>
<polygon class="st6" points="44.2,475.5 35.3,484 37,485.6 40.3,482.5 53.1,495.7 55.3,493.4 42.6,480 45.9,476.9 "/>
<polygon class="st7" points="61,359.2 52.3,357.1 39.2,366.3 38.7,375.8 59.2,403.5 80.6,388.6 "/>
<polygon class="st8" points="67.8,403.7 78.1,396.5 77.3,390.9 62.3,401.4 "/>
<g id="Capa_1-2">
	
		<rect x="28.9" y="530.1" transform="matrix(0.8062 -0.5916 0.5916 0.8062 -305.4861 144.5412)" class="st9" width="78" height="17"/>
	<polygon class="st10" points="109,508.5 97.3,512.8 101.3,518.2 	"/>
</g>
<rect x="401.2" y="592.8" class="st5" width="25" height="25"/>
<rect x="401.2" y="758.3" class="st5" width="25" height="25"/>
<line class="st11" x1="413.7" y1="617.8" x2="413.7" y2="758.3"/>
<rect x="24.9" y="23.9" class="st5" width="98" height="241.9"/>
<rect x="42.3" y="39.6" class="st12" width="60.5" height="79.4"/>
<line class="st13" x1="52.3" y1="48.6" x2="52.3" y2="111.8"/>
<line class="st13" x1="65.2" y1="70.5" x2="65.2" y2="111.8"/>
<path class="st14" d="M80.6,111.8"/>
<line class="st13" x1="78.1" y1="70.5" x2="78.1" y2="111.8"/>
<rect x="72.6" y="48.6" class="st15" width="16.8" height="11.9"/>
<polygon class="st10" points="38.7,212.7 46.2,238.1 68.6,224.4 "/>
<polygon class="st14" points="45.2,219.8 49,231 59.2,225.3 "/>
<rect x="72.6" y="154.1" class="st16" width="22" height="20.9"/>
<rect x="78" y="159.1" class="st17" width="11.3" height="10.9"/>
<rect x="93.9" y="160.2" class="st18" width="8.2" height="8.8"/>
<rect x="136.7" y="182.8" transform="matrix(0.7639 -0.6453 0.6453 0.7639 -93.8633 148.9901)" class="st19" width="40" height="40"/>
<rect x="141.7" y="192.8" transform="matrix(0.4424 -0.8968 0.8968 0.4424 -94.4915 253.5692)" class="st14" width="30" height="20"/>
<line class="st20" x1="154.5" y1="191.9" x2="165.8" y2="197.4"/>
<line class="st20" x1="150.1" y1="199.6" x2="163.8" y2="206.3"/>
<polygon class="st21" points="150.7,206.5 147.7,210.3 154.8,213.7 158.8,211.6 "/>
<polygon class="st22" points="73.6,755.7 85.3,744 28.9,688.4 17.6,699.7 "/>
<polygon class="st5" points="84.8,744.2 111.8,717.5 55.8,661.5 28.9,688.4 "/>
<polygon class="st22" points="239.5,785.3 239.5,768.8 160.3,769.3 160.3,785.3 "/>
<polygon class="st5" points="239.3,769.3 239.5,731.3 160.3,731.3 160.3,769.3 "/>
<polygon class="st23" points="312.6,181.9 350.6,213.9 376.9,182.6 338.9,150.6 332.2,158.6 324.7,152.4 311.9,167.6 319.3,173.9 
	"/>
<rect x="333.9" y="166.5" transform="matrix(0.6435 -0.7655 0.7655 0.6435 -16.3266 327.9673)" class="st24" width="20" height="30"/>
<path class="st25" d="M314.6,164.4l-18.7-10.1l-32.2,9.5l-30.9-29l-37.3-9.6l18.6-34.7l5.1-26.8l45.7-9.3l3.4-18.9L246,29l19.3-19.2
	c0,0,25.5,0,26.2,3.5s11,48.9,11,48.9l30.5,2.1l3,22.3l-23.2,12.8l14.2,20l-18,10.3l12.3,26.5L314.6,164.4z"/>
<polygon class="st6" points="91,554.9 103.2,554.7 103.2,557 98.7,557.2 98.9,575.5 95.7,575.5 95.4,557 90.8,557.1 "/>
</svg>
