<?xml version="1.0" encoding="utf-8"?>
<!-- Generator: Adobe Illustrator 23.0.3, SVG Export Plug-In . SVG Version: 6.00 Build 0)  -->
<svg version="1.1" id="Capa_1" xmlns="http://www.w3.org/2000/svg" xmlns:xlink="http://www.w3.org/1999/xlink" x="0px" y="0px"
	 viewBox="0 0 450 800" style="enable-background:new 0 0 450 800;" xml:space="preserve">
<style type="text/css">
	.st0{fill:#999999;}
	.st1{fill:#42464D;}
	.st2{fill:#333333;stroke:#008CBF;stroke-width:13;stroke-miterlimit:10;}
	.st3{fill:none;stroke:#008CBF;stroke-width:10;stroke-miterlimit:10;}
	.st4{fill:none;stroke:#008CBF;stroke-width:20;stroke-miterlimit:10;}
	.st5{fill:none;stroke:#008CBF;stroke-width:5;stroke-miterlimit:10;}
	.st6{fill:#4F545C;}
	.st7{fill:#808080;}
	.st8{fill:#008CBF;}
	.st9{fill:#D4FFFC;}
	.st10{fill:none;stroke:#E90000;stroke-width:5;stroke-miterlimit:10;}
</style>
<polygon class="st0" points="135.5,0 135.5,190 173,223 277,223 314,190 314,0 387,0 387,800 63,800 63,0 "/>
<rect class="st1" width="63" height="800"/>
<rect x="387" class="st1" width="63" height="800"/>
<polygon class="st2" points="275,345.4 175,345.4 125,432 175,518.6 275,518.6 325,432 "/>
<g>
	<g>
		<polyline class="st3" points="191.8,482 191.8,464.5 201.8,446.3 219.3,432 229.8,432 248.3,417.8 258.3,399.5 258.3,382 		"/>
		<polyline class="st3" points="258.3,482 258.3,464.5 248.3,446.3 230.8,432 220.3,432 201.8,417.8 191.8,399.5 191.8,382 		"/>
		<path class="st4" d="M257,392.3"/>
		<path class="st4" d="M193.5,392.3"/>
		<path class="st3" d="M254,407.8"/>
		<path class="st4" d="M197,407.8"/>
		<path class="st4" d="M201.5,446.7"/>
	</g>
	<line class="st5" x1="194" y1="474.8" x2="257.5" y2="474.8"/>
	<line class="st5" x1="194.5" y1="459.8" x2="254.5" y2="459.8"/>
	<line class="st5" x1="203.5" y1="445.3" x2="246" y2="445.3"/>
	<line class="st5" x1="194" y1="389.3" x2="257.5" y2="389.3"/>
	<line class="st5" x1="194.5" y1="404.3" x2="254.5" y2="404.3"/>
	<line class="st5" x1="203.5" y1="418.8" x2="246" y2="418.8"/>
</g>
<polygon class="st6" points="387,79.8 370.5,79.8 371,159 387,159 "/>
<polygon class="st1" points="371,80 333,79.8 333,159 371,159 "/>
<g>
	<polygon class="st6" points="63,79.8 79.5,79.8 79,159 63,159 	"/>
	<polygon class="st1" points="79,80 117,79.8 117,159 79,159 	"/>
</g>
<rect x="325" y="576" class="st1" width="49" height="104"/>
<path class="st7" d="M338,595"/>
<g>
	<polygon class="st8" points="342,585 357,585 357,608 342,608 	"/>
	<rect x="348.5" y="585" class="st9" width="2" height="11"/>
</g>
<g>
	<polygon class="st8" points="342,613 357,613 357,636 342,636 	"/>
	<rect x="348.5" y="613" class="st9" width="2" height="11"/>
</g>
<g>
	<polygon class="st8" points="342,641 357,641 357,664 342,664 	"/>
	<rect x="348.5" y="641" class="st9" width="2" height="11"/>
</g>
<rect x="325" y="380" class="st1" width="49" height="104"/>
<g>
	<polygon class="st8" points="342,389 357,389 357,412 342,412 	"/>
	<rect x="348.5" y="389" class="st9" width="2" height="11"/>
</g>
<g>
	<polygon class="st8" points="342,445 357,445 357,468 342,468 	"/>
	<rect x="348.5" y="445" class="st9" width="2" height="11"/>
</g>
<rect x="76" y="381" class="st1" width="49" height="104"/>
<g>
	<polygon class="st8" points="93,418 108,418 108,441 93,441 	"/>
	<rect x="99.5" y="418" class="st9" width="2" height="11"/>
</g>
<g>
	<polygon class="st8" points="93,446 108,446 108,469 93,469 	"/>
	<rect x="99.5" y="446" class="st9" width="2" height="11"/>
</g>
<rect x="75" y="572" class="st1" width="49" height="104"/>
<g>
	<polygon class="st8" points="92,581 107,581 107,604 92,604 	"/>
	<rect x="98.5" y="581" class="st9" width="2" height="11"/>
</g>
<g>
	<polygon class="st8" points="92,609 107,609 107,632 92,632 	"/>
	<rect x="98.5" y="609" class="st9" width="2" height="11"/>
</g>
<line class="st10" x1="177" y1="738.5" x2="272" y2="738.5"/>
<line class="st10" x1="79" y1="738.5" x2="168" y2="738.5"/>
<polygon class="st1" points="98,274 127,303 174,261 146,229 "/>
<polygon class="st1" points="352,274 323,303 276,261 304,229 "/>
<rect x="167" y="731" class="st1" width="17" height="15"/>
<line class="st10" x1="282" y1="738.5" x2="370" y2="738.5"/>
<rect x="269" y="731" class="st1" width="17" height="15"/>
<rect x="62" y="731" class="st1" width="17" height="15"/>
<rect x="370" y="731" class="st1" width="17" height="15"/>
</svg>
