<svg id="Capa_1" data-name="Capa 1" xmlns="http://www.w3.org/2000/svg" viewBox="0 0 239.73 300"><defs><style>.cls-1{fill:#fd6aff;}.cls-2{fill:#d95bdb;}.cls-3{fill:#e861eb;}.cls-4{fill:none;stroke:#1e1f1e;stroke-width:10px;}.cls-4,.cls-6{stroke-miterlimit:10;}.cls-5{fill:#aeb0b0;}.cls-6{fill:#fff;stroke:#b11aa2;stroke-width:18px;}</style></defs><title>CoronaHead</title><polygon class="cls-1" points="107 0 214 78 107 78 107 0"/><polygon class="cls-2" points="0 78 107 222 214 78 0 78"/><polygon class="cls-3" points="0 222 107 222 0 78 0 222"/><polygon class="cls-3" points="214 222 107 222 214 78 214 222"/><polygon class="cls-2" points="0 222 214 222 107 300 0 222"/><polygon class="cls-1" points="107 222 107 300 0 222 107 222"/><line class="cls-4" x1="38.38" y1="239" x2="175.62" y2="239"/><polygon class="cls-3" points="107 78 107 0 0 78 107 78"/><polygon class="cls-5" points="20 68.5 2.44 0 62 32.49 107 0 152 32.49 211.56 0 194 68.5 20 68.5"/><polygon class="cls-6" points="223 49.2 196.7 139.5 112.2 139.5 223 49.2"/></svg>