<?xml version="1.0" encoding="utf-8"?>
<!-- Generator: Adobe Illustrator 23.0.3, SVG Export Plug-In . SVG Version: 6.00 Build 0)  -->
<svg version="1.1" id="Capa_1" xmlns="http://www.w3.org/2000/svg" xmlns:xlink="http://www.w3.org/1999/xlink" x="0px" y="0px"
	 viewBox="0 0 245.1 428.3" style="enable-background:new 0 0 245.1 428.3;" xml:space="preserve">
<style type="text/css">
	.st0{fill:#E6E6E6;}
	.st1{fill:none;stroke:#000000;stroke-width:8;stroke-miterlimit:10;}
	.st2{fill:#FFFFFF;stroke:#1D1D1B;stroke-width:10;stroke-miterlimit:10;}
	.st3{fill:#FFFFFF;stroke:#1D1D1B;stroke-width:0.75;stroke-miterlimit:10;}
	.st4{fill:#D64824;}
	.st5{fill:#F6F6F6;stroke:#B11AA2;stroke-width:8;stroke-miterlimit:10;}
	.st6{fill:#1D1D1B;}
	.st7{fill:none;stroke:#973189;stroke-width:40;stroke-miterlimit:10;}
	.st8{fill:none;stroke:#424242;stroke-width:40;stroke-miterlimit:10;}
	.st9{fill:none;stroke:#CCCCCC;stroke-width:40;stroke-miterlimit:10;}
</style>
<title>Main</title>
<rect x="22.6" y="9.8" class="st0" width="200" height="300"/>
<polygon class="st0" points="22.6,308.2 72.6,358.2 172.6,358.2 222.6,308.2 "/>
<line class="st1" x1="122.6" y1="358.1" x2="122.6" y2="428.3"/>
<path class="st2" d="M103.1,412.1"/>
<path class="st3" d="M22.6,28.7"/>
<polygon class="st4" points="88.8,0 122.6,45 156.3,0 "/>
<line class="st1" x1="87.5" y1="373.6" x2="157.6" y2="373.6"/>
<line class="st1" x1="97.6" y1="392.9" x2="147.6" y2="392.9"/>
<line class="st1" x1="107.6" y1="412.8" x2="137.6" y2="412.8"/>
<polygon class="st5" points="63.5,325.5 104.5,280.5 104.5,325.5 "/>
<rect x="87" y="310.1" class="st6" width="10" height="10"/>
<polygon class="st5" points="182,325.5 141,280.5 141,325.5 "/>
<rect x="148.5" y="310.1" class="st6" width="10" height="10"/>
<path class="st7" d="M232.6,352.9"/>
<line class="st8" x1="44.2" y1="204" x2="122.6" y2="155.6"/>
<polyline class="st9" points="26.9,6.7 44.1,87.9 122.6,155.6 44.2,204 19.6,320.1 "/>
<polyline class="st9" points="218.2,6.7 201,87.9 122.6,155.6 201,204 225.6,320.1 "/>
</svg>
