<svg id="Capa_1" data-name="Capa 1" xmlns="http://www.w3.org/2000/svg" viewBox="0 0 150 150"><defs><style>.cls-1,.cls-2{fill:none;stroke-miterlimit:10;stroke-width:16px;}.cls-1{stroke:#e30613;}.cls-2{stroke:#fff;}.cls-3{fill:#e30613;}</style></defs><title>Training</title><polygon class="cls-1" points="102.75 8 47.25 8 8 47.25 8 102.75 47.25 142 102.75 142 142 102.75 142 47.25 102.75 8"/><polygon class="cls-2" points="96.13 24 53.88 24 24 53.88 24 96.13 53.88 126 96.13 126 126 96.13 126 53.88 96.13 24"/><polygon class="cls-1" points="89.5 40 60.5 40 40 60.5 40 89.5 60.5 110 89.5 110 110 89.5 110 60.5 89.5 40"/><polygon class="cls-2" points="83.08 55.5 66.92 55.5 55.5 66.92 55.5 83.08 66.92 94.5 83.08 94.5 94.5 83.08 94.5 66.92 83.08 55.5"/><polygon class="cls-3" points="79.76 63.5 70.24 63.5 63.5 70.24 63.5 79.76 70.24 86.5 79.76 86.5 86.5 79.76 86.5 70.24 79.76 63.5"/></svg>