<?xml version="1.0" encoding="utf-8"?>
<!-- Generator: Adobe Illustrator 23.0.3, SVG Export Plug-In . SVG Version: 6.00 Build 0)  -->
<svg version="1.1" id="Capa_1" xmlns="http://www.w3.org/2000/svg" xmlns:xlink="http://www.w3.org/1999/xlink" x="0px" y="0px"
	 viewBox="0 0 120 120" style="enable-background:new 0 0 120 120;" xml:space="preserve">
<style type="text/css">
	.st0{fill:none;stroke:#B3220B;stroke-width:12;stroke-miterlimit:10;}
	.st1{fill:#BD3900;}
	.st2{fill:#008535;}
</style>
<path class="st0" d="M30,16"/>
<polygon class="st1" points="70.3,92 110,92 110,25 100,50 90,25 90,70 74,70 74,25 60,50 46,25 46,70 30,70 30,25 20,50 10,25 
	10,92 49.7,92 49.7,120 70.3,120 "/>
<polygon class="st2" points="20.5,0 10,25 20,50 30,25 "/>
<polygon class="st1" points="100.5,0 90,25 100,50 110,25 "/>
<polygon class="st2" points="60.5,0 46,25 60,50 74,25 "/>
</svg>
