<?xml version="1.0" encoding="utf-8"?>
<!-- Generator: Adobe Illustrator 23.0.3, SVG Export Plug-In . SVG Version: 6.00 Build 0)  -->
<svg version="1.1" id="Capa_1" xmlns="http://www.w3.org/2000/svg" xmlns:xlink="http://www.w3.org/1999/xlink" x="0px" y="0px"
	 viewBox="0 0 110.3 120" style="enable-background:new 0 0 110.3 120;" xml:space="preserve">
<style type="text/css">
	.st0{fill:none;stroke:#B3220B;stroke-width:12;stroke-miterlimit:10;}
	.st1{fill:#BD3900;}
	.st2{fill:none;stroke:#B400A7;stroke-width:7;stroke-miterlimit:10;}
	.st3{fill:#008535;}
	.st4{fill:#B11AA2;stroke:#008535;stroke-width:8;stroke-miterlimit:10;}
</style>
<title>SerpacidHead</title>
<path class="st0" d="M25.1,16"/>
<polygon class="st1" points="20.1,85 44.1,120 66.1,120 90.1,85 97.1,40 88.1,16 69.1,10 69.1,0 41.1,0 41.1,10 22.1,16 13.1,40 "/>
<path class="st2" d="M21.4,74.3"/>
<polygon class="st3" points="27,95.1 14.4,113.5 37,109.7 "/>
<path class="st3" d="M0,85.5"/>
<polygon class="st3" points="83,95.1 95.6,113.5 73,109.7 "/>
<polygon class="st3" points="97.1,40.3 67.1,58.1 94.7,55.7 "/>
<polygon class="st3" points="93.4,65.4 63.4,83.2 91,80.8 "/>
<polygon class="st4" points="13.3,40.3 45,82.3 5.2,70.5 "/>
</svg>
